<svg width="321" height="149" viewBox="0 0 321 149" fill="none" xmlns="http://www.w3.org/2000/svg">
<path d="M302.15 146.928C301.041 147.954 299.586 148.523 298.075 148.523H280.425H240.425H160.425H6.4248C3.11111 148.523 0.424805 145.837 0.424805 142.523V6.52344C0.424805 3.20973 3.11111 0.523438 6.4248 0.523438H314.425C317.739 0.523438 320.425 3.20973 320.425 6.52344V74.5234V111.523V127.4C320.425 129.073 319.727 130.669 318.499 131.805L302.15 146.928Z" fill="#ADADAD"/>
<path d="M302.15 146.928C301.041 147.954 299.586 148.523 298.075 148.523H280.425H240.425H160.425H6.4248C3.11111 148.523 0.424805 145.837 0.424805 142.523V6.52344C0.424805 3.20973 3.11111 0.523438 6.4248 0.523438H314.425C317.739 0.523438 320.425 3.20973 320.425 6.52344V74.5234V111.523V127.4C320.425 129.073 319.727 130.669 318.499 131.805L302.15 146.928Z" fill="url(#paint0_linear_2519_1326)"/>
<defs>
<linearGradient id="paint0_linear_2519_1326" x1="292.06" y1="191.735" x2="54.4192" y2="-26.0046" gradientUnits="userSpaceOnUse">
<stop stop-color="white"/>
<stop offset="0.195678" stop-color="white" stop-opacity="0.599366"/>
<stop offset="0.377212" stop-color="#999999" stop-opacity="0.4"/>
<stop offset="0.558591" stop-color="white" stop-opacity="0.53"/>
<stop offset="0.837775" stop-color="#565656" stop-opacity="0.39"/>
<stop offset="0.98996" stop-color="white" stop-opacity="0.71"/>
</linearGradient>
</defs>
</svg>
