<svg width="19" height="19" viewBox="0 0 19 19" fill="none" xmlns="http://www.w3.org/2000/svg">
<path d="M16.8725 18.3047L10.5725 12.0047C10.0725 12.4047 9.49746 12.7214 8.84746 12.9547C8.19746 13.188 7.50579 13.3047 6.77246 13.3047C4.95579 13.3047 3.41846 12.6754 2.16046 11.4167C0.902461 10.158 0.273128 8.62069 0.272461 6.80469C0.272461 4.98802 0.901794 3.45069 2.16046 2.19269C3.41913 0.934687 4.95646 0.305354 6.77246 0.304688C8.58913 0.304688 10.1265 0.934021 11.3845 2.19269C12.6425 3.45135 13.2718 4.98869 13.2725 6.80469C13.2725 7.53802 13.1558 8.22969 12.9225 8.87969C12.6891 9.52969 12.3725 10.1047 11.9725 10.6047L18.2725 16.9047L16.8725 18.3047ZM6.77246 11.3047C8.02246 11.3047 9.08513 10.867 9.96046 9.99169C10.8358 9.11635 11.2731 8.05402 11.2725 6.80469C11.2725 5.55469 10.8348 4.49202 9.95946 3.61669C9.08413 2.74135 8.02179 2.30402 6.77246 2.30469C5.52246 2.30469 4.45979 2.74235 3.58446 3.61769C2.70913 4.49302 2.27179 5.55535 2.27246 6.80469C2.27246 8.05469 2.71013 9.11735 3.58546 9.99269C4.46079 10.868 5.52313 11.3054 6.77246 11.3047Z" fill="#888888"/>
</svg>
