<svg width="24" height="25" viewBox="0 0 24 25" fill="none" xmlns="http://www.w3.org/2000/svg">
<g clip-path="url(#clip0_971_2161)">
<path d="M6.31523 6.98611C6.06523 6.34811 6.07523 5.61911 6.18623 4.95211C6.95042 5.18108 7.66812 5.54332 8.30623 6.02211C8.58623 6.23611 8.95323 6.30511 9.29523 6.20211C10.1728 5.93955 11.0842 5.80747 12.0002 5.81011C12.9612 5.81011 13.8742 5.95011 14.7032 6.20111C15.0452 6.30511 15.4122 6.23511 15.6912 6.02111C16.329 5.54243 17.0464 5.18019 17.8102 4.95111C17.9212 5.61811 17.9302 6.34711 17.6822 6.98411C17.5322 7.36811 17.6072 7.81011 17.8902 8.12411C18.6142 8.92711 19.0002 9.85011 19.0002 10.8101C19.0002 12.9241 17.0302 14.9971 13.8662 15.6281C13.0742 15.7861 12.7652 16.7831 13.3712 17.3541C13.7602 17.7201 14.0002 18.2361 14.0002 18.8101V21.8101C14.0002 22.0753 14.1056 22.3297 14.2931 22.5172C14.4807 22.7048 14.735 22.8101 15.0002 22.8101C15.2654 22.8101 15.5198 22.7048 15.7073 22.5172C15.8949 22.3297 16.0002 22.0753 16.0002 21.8101V18.8101C16.0002 18.2401 15.8802 17.6981 15.6662 17.2071C18.6832 16.1601 21.0002 13.8031 21.0002 10.8101C21.0002 9.46311 20.5162 8.22511 19.7132 7.18811C19.9232 6.36811 19.9042 5.54211 19.8242 4.90811C19.7532 4.34011 19.6542 3.59611 19.2542 3.15211C18.6592 2.49311 17.6742 2.88111 16.9742 3.12011C16.2233 3.3742 15.5089 3.72552 14.8492 4.16511C13.9183 3.92752 12.961 3.80825 12.0002 3.81011C11.0062 3.81011 10.0472 3.93511 9.14923 4.16611C8.48955 3.72651 7.77514 3.37519 7.02423 3.12111C6.32423 2.88111 5.33823 2.49311 4.74323 3.15211C4.33523 3.60411 4.25023 4.28911 4.17723 4.87111L4.17223 4.90911C4.09223 5.54411 4.07423 6.37111 4.28423 7.19211C3.48423 8.22811 3.00023 9.46411 3.00023 10.8101C3.00023 13.8021 5.31723 16.1601 8.33423 17.2071C8.11585 17.7064 8.00218 18.2452 8.00023 18.7901L7.83223 18.8241C7.11523 18.9231 6.65623 18.8341 6.34423 18.7021C5.58423 18.3801 5.19223 17.5691 4.71423 16.9491C4.41623 16.5641 3.98223 16.0831 3.31623 15.8611C3.1916 15.8196 3.06003 15.8031 2.92901 15.8124C2.79799 15.8218 2.6701 15.8568 2.55263 15.9156C2.3154 16.0343 2.13504 16.2424 2.05123 16.4941C1.96742 16.7458 1.98703 17.0205 2.10574 17.2577C2.22445 17.4949 2.43254 17.6753 2.68423 17.7591C3.24223 17.9451 3.62823 18.9011 3.98223 19.3251C4.35523 19.7731 4.85123 20.2411 5.56223 20.5431C6.24423 20.8331 7.04523 20.9361 8.00023 20.8191V21.8101C8.00023 22.0753 8.10559 22.3297 8.29312 22.5172C8.48066 22.7048 8.73501 22.8101 9.00023 22.8101C9.26545 22.8101 9.5198 22.7048 9.70734 22.5172C9.89487 22.3297 10.0002 22.0753 10.0002 21.8101V18.8101C10.0002 18.2361 10.2402 17.7201 10.6292 17.3541C11.2362 16.7821 10.9262 15.7861 10.1342 15.6281C6.96923 14.9971 5.00023 12.9241 5.00023 10.8101C5.00023 9.85211 5.38523 8.92911 6.10823 8.12611C6.39123 7.81211 6.46523 7.37011 6.31523 6.98611Z" fill="white"/>
</g>
<defs>
<clipPath id="clip0_971_2161">
<rect width="24" height="24" fill="white" transform="translate(0 0.810547)"/>
</clipPath>
</defs>
</svg>
